<?xml version="1.0" encoding="UTF-8"?>
<svg version="1.1" viewBox="0 0 400 400" xmlns="http://www.w3.org/2000/svg" xmlns:xlink="http://www.w3.org/1999/xlink">
	<defs>
		<linearGradient id="linearGradient4776" x1="-22.082" x2="82.675" y1="-20.816" y2="-20.816" gradientTransform="matrix(7.5411 0 0 23.12 166.52 1403.8)" gradientUnits="userSpaceOnUse">
			<stop stop-color="#003b4d" offset="0"/>
			<stop stop-color="#28abca" offset="1"/>
		</linearGradient>
	</defs>
	<g transform="translate(0 -722.52)">
		<path d="m0 722.52h400v400h-400z" fill="url(#linearGradient4776)" stroke-linejoin="round" stroke-width="2.33"/>
		<path d="m298.16 888.82-101.41 213.7-101.4-213.7a88.983 88.983 0 0 1-6.9383-37.923 108.34 108.34 0 1 1 216.68 0 88.983 88.983 0 0 1-6.9383 37.923zm-101.41-92.097a54.166 54.166 0 1 0 54.166 54.165 54.166 54.166 0 0 0-54.166-54.165z" fill="#fff" opacity=".4"/>
		<g transform="translate(1.7069)" fill="#fff">
			<path d="m32.111 933.72a11.884 11.884 0 0 1 12.234 12.164 11.685 11.685 0 0 1-3.5018 8.6701 11.895 11.895 0 0 1-8.7545 3.5018h-10.346v14.91h-2.9749v-39.246zm0 21.476a8.9614 8.9614 0 0 0 6.6486-2.6279 9.1015 9.1015 0 0 0 2.6056-6.6852 9.1842 9.1842 0 0 0-2.6056-6.7298 8.9614 8.9614 0 0 0-6.6486-2.6279h-10.375v18.695z"/>
			<path d="m83.209 967.67a19.467 19.467 0 0 1-14.361 5.9244 19.467 19.467 0 0 1-14.348-5.9244 19.548 19.548 0 0 1-5.8416-14.326 19.578 19.578 0 0 1 5.8416-14.337 19.502 19.502 0 0 1 14.348-5.9117 19.502 19.502 0 0 1 14.361 5.9117 19.578 19.578 0 0 1 5.8416 14.337 19.548 19.548 0 0 1-5.8416 14.326zm-26.606-2.0215a16.554 16.554 0 0 0 12.245 5.0824 16.554 16.554 0 0 0 12.256-5.0824 16.802 16.802 0 0 0 5.0251-12.304 16.848 16.848 0 0 0-5.0251-12.315 16.592 16.592 0 0 0-12.256-5.0712 16.592 16.592 0 0 0-12.245 5.0712 16.848 16.848 0 0 0-5.0251 12.315 16.802 16.802 0 0 0 5.0251 12.304z"/>
			<path d="m106.66 973.6a16.428 16.428 0 0 1-9.232-2.5006 12.315 12.315 0 0 1-5.1301-6.7537l2.5818-1.5185a10.346 10.346 0 0 0 4.0669 5.7716 12.969 12.969 0 0 0 7.7119 2.1377 10.913 10.913 0 0 0 7.3219-2.1966 7.0688 7.0688 0 0 0 2.5468-5.6554 5.7493 5.7493 0 0 0-2.4688-5.0012 29.901 29.901 0 0 0-7.6562-3.419l-2.7696-1.0044-2.5006-0.91205a13.706 13.706 0 0 1-2.4194-1.0983c-0.52527-0.33904-1.1683-0.79586-1.8814-1.3562a6.1568 6.1568 0 0 1-1.6236-1.6586 11.23 11.23 0 0 1-0.88659-2.0884 8.277 8.277 0 0 1-0.39793-2.6645 9.5694 9.5694 0 0 1 3.3888-7.653 12.654 12.654 0 0 1 8.5062-2.9336 13.285 13.285 0 0 1 7.852 2.3366 13.577 13.577 0 0 1 4.7752 5.9117l-2.5245 1.4023a10.107 10.107 0 0 0-10.095-6.7887 9.3482 9.3482 0 0 0-6.4258 2.1265 6.9399 6.9399 0 0 0-2.4194 5.4453 5.3975 5.3975 0 0 0 2.2427 4.7561 29.737 29.737 0 0 0 7.349 3.2598l5.0601 1.8814a22.949 22.949 0 0 1 3.9268 2.0103 8.4011 8.4011 0 0 1 3.0497 3.1437 9.0728 9.0728 0 0 1 0.95503 4.2419 9.6872 9.6872 0 0 1-3.5018 7.8281 14.138 14.138 0 0 1-9.4023 2.9495z"/>
			<path d="m149 933.72v2.8046h-12.339v36.45h-3.037v-36.45h-12.339v-2.8046z"/>
			<path d="m170.36 973.76a19.946 19.946 0 0 1-20.425-20.412 19.922 19.922 0 0 1 20.425-20.412 20.132 20.132 0 0 1 9.7573 2.4306 18.614 18.614 0 0 1 7.0036 6.6486l-7.7469 4.4871a8.799 8.799 0 0 0-3.7039-3.5018 11.392 11.392 0 0 0-5.3752-1.2622 11.101 11.101 0 0 0-8.277 3.1834 11.602 11.602 0 0 0-3.1198 8.4712 11.62 11.62 0 0 0 3.1198 8.4712 11.088 11.088 0 0 0 8.3311 3.1834 11.486 11.486 0 0 0 5.4118-1.2845 8.729 8.729 0 0 0 3.6689-3.5018l7.7469 4.4871a18.041 18.041 0 0 1-7.0036 6.6486 20.237 20.237 0 0 1-9.813 2.3637z"/>
			<path d="m250.89 933.72a18.205 18.205 0 0 1 13.601 5.6315 19.327 19.327 0 0 1 5.4676 14.021 19.279 19.279 0 0 1-5.4676 14.021 18.17 18.17 0 0 1-13.601 5.571h-15.704v-39.246zm0 30.625a10.002 10.002 0 0 0 7.5368-3.0036 11.018 11.018 0 0 0 2.8858-7.992 11.018 11.018 0 0 0-2.8858-7.992 10.002 10.002 0 0 0-7.5368-3.0036h-6.7298v21.991z"/>
			<path d="m283.42 964.34h15.704v8.624h-24.672v-39.249h24.398v8.6351h-15.424v6.5086h14.021v8.5173h-14.021z"/>
			<path d="m311.85 972.2a5.3164 5.3164 0 1 1 1.1699-5.8018 5.3164 5.3164 0 0 1-1.1699 5.8018z"/>
			<path d="m228.67 956.77-17.937 37.799-17.936-37.799a15.739 15.739 0 0 1-1.2272-6.7075 19.163 19.163 0 1 1 38.326 0 15.739 15.739 0 0 1-1.2272 6.7075zm-17.937-16.29a9.5806 9.5806 0 1 0 9.5806 9.5806 9.5806 9.5806 0 0 0-9.5806-9.5806z"/>
			<path d="m318.71 972.97v-39.249h24.387v8.6489h-15.409v6.4867h14.013v8.5395h-14.013v6.952h15.683v8.6216z"/>
			<path d="m347.55 960.3v-26.576h8.95v25.783q0 5.5014 6.1856 5.5014 6.1583 0 6.1583-5.5014v-25.783h8.9774v26.576q0 4.1055-1.998 7.1983-1.998 3.0928-5.4193 4.6803-3.3939 1.5875-7.7184 1.5875-4.3245 0-7.7457-1.5875-3.3939-1.5875-5.3919-4.6803-1.998-3.0928-1.998-7.1983z"/>
		</g>
	</g>
</svg>
